<svg width="62" height="62" viewBox="0 0 62 62" fill="none" xmlns="http://www.w3.org/2000/svg">
<path d="M60.5625 45.4892C60.5624 47.5936 59.7788 49.6172 58.373 51.1699L58.083 51.4745C56.4956 53.0617 54.3424 53.9531 52.0977 53.9531H10.4648C8.36021 53.9531 6.33594 53.1696 4.7832 51.7636L4.47949 51.4745C2.89218 49.8872 2.0001 47.734 2 45.4892V19.9999L29.957 34.3203C30.3653 34.5294 30.8177 34.6376 31.2764 34.6376C31.6778 34.6376 32.0741 34.5545 32.4404 34.3935L32.5957 34.3203L60.5625 19.9921V45.4892Z" fill="#367AF2" stroke="white" stroke-width="2"/>
<path d="M60.5625 45.4892C60.5624 47.5936 59.7788 49.6172 58.373 51.1699L58.083 51.4745C56.4956 53.0617 54.3424 53.9531 52.0977 53.9531H10.4648C8.36021 53.9531 6.33594 53.1696 4.7832 51.7636L4.47949 51.4745C2.89218 49.8872 2.0001 47.734 2 45.4892V19.9999L29.957 34.3203C30.3653 34.5294 30.8177 34.6376 31.2764 34.6376C31.6778 34.6376 32.0741 34.5545 32.4404 34.3935L32.5957 34.3203L60.5625 19.9921V45.4892Z" fill="url(#paint0_linear_62_711)" stroke="white" stroke-width="2"/>
<path d="M60.5625 45.4892C60.5624 47.5936 59.7788 49.6172 58.373 51.1699L58.083 51.4745C56.4956 53.0617 54.3424 53.9531 52.0977 53.9531H10.4648C8.36021 53.9531 6.33594 53.1696 4.7832 51.7636L4.47949 51.4745C2.89218 49.8872 2.0001 47.734 2 45.4892V19.9999L29.957 34.3203C30.3653 34.5294 30.8177 34.6376 31.2764 34.6376C31.6778 34.6376 32.0741 34.5545 32.4404 34.3935L32.5957 34.3203L60.5625 19.9921V45.4892Z" fill="url(#paint1_linear_62_711)" stroke="white" stroke-width="2"/>
<path d="M60.5625 45.4892C60.5624 47.5936 59.7788 49.6172 58.373 51.1699L58.083 51.4745C56.4956 53.0617 54.3424 53.9531 52.0977 53.9531H10.4648C8.36021 53.9531 6.33594 53.1696 4.7832 51.7636L4.47949 51.4745C2.89218 49.8872 2.0001 47.734 2 45.4892V19.9999L29.957 34.3203C30.3653 34.5294 30.8177 34.6376 31.2764 34.6376C31.6778 34.6376 32.0741 34.5545 32.4404 34.3935L32.5957 34.3203L60.5625 19.9921V45.4892Z" fill="url(#paint2_linear_62_711)" fill-opacity="0.75" stroke="white" stroke-width="2"/>
<path d="M60.5625 45.4892C60.5624 47.5936 59.7788 49.6172 58.373 51.1699L58.083 51.4745C56.4956 53.0617 54.3424 53.9531 52.0977 53.9531H10.4648C8.36021 53.9531 6.33594 53.1696 4.7832 51.7636L4.47949 51.4745C2.89218 49.8872 2.0001 47.734 2 45.4892V19.9999L29.957 34.3203C30.3653 34.5294 30.8177 34.6376 31.2764 34.6376C31.6778 34.6376 32.0741 34.5545 32.4404 34.3935L32.5957 34.3203L60.5625 19.9921V45.4892Z" fill="url(#paint3_linear_62_711)" fill-opacity="0.7" stroke="white" stroke-width="2"/>
<path d="M10.4648 8H52.0977C54.2022 8 56.2266 8.78355 57.7793 10.1895L58.083 10.4795C59.6704 12.0669 60.5625 14.2199 60.5625 16.4648V18.8818L31.6836 33.6758C31.5576 33.7403 31.4179 33.7734 31.2764 33.7734C31.1701 33.7734 31.0649 33.7545 30.9658 33.7178L30.8691 33.6758L2 18.8887V16.4648C2 14.3603 2.78355 12.3359 4.18945 10.7832L4.47949 10.4795C6.06689 8.8921 8.21993 8 10.4648 8Z" fill="url(#paint4_linear_62_711)" stroke="white" stroke-width="2"/>
<defs>
<linearGradient id="paint0_linear_62_711" x1="40.1097" y1="23.4051" x2="54.4149" y2="56.7225" gradientUnits="userSpaceOnUse">
<stop offset="0.199" stop-color="#0094F0" stop-opacity="0"/>
<stop offset="0.431" stop-color="#0094F0"/>
</linearGradient>
<linearGradient id="paint1_linear_62_711" x1="22.6295" y1="22.2088" x2="7.42574" y2="57.8658" gradientUnits="userSpaceOnUse">
<stop offset="0.191" stop-color="#0094F0" stop-opacity="0"/>
<stop offset="0.431" stop-color="#0094F0"/>
</linearGradient>
<linearGradient id="paint2_linear_62_711" x1="47.2497" y1="40.1913" x2="49.713" y2="58.3479" gradientUnits="userSpaceOnUse">
<stop stop-color="#2764E7" stop-opacity="0"/>
<stop offset="1" stop-color="#2764E7"/>
</linearGradient>
<linearGradient id="paint3_linear_62_711" x1="40.6549" y1="22.8524" x2="45.1473" y2="59.8016" gradientUnits="userSpaceOnUse">
<stop offset="0.533" stop-color="#FF6CE8" stop-opacity="0"/>
<stop offset="1" stop-color="#FF6CE8"/>
</linearGradient>
<linearGradient id="paint4_linear_62_711" x1="18.9926" y1="-1.69469" x2="37.5278" y2="46.8492" gradientUnits="userSpaceOnUse">
<stop stop-color="#6CE0FF"/>
<stop offset="0.462" stop-color="#29C3FF"/>
<stop offset="1" stop-color="#4894FE"/>
</linearGradient>
</defs>
</svg>
