<svg width="62" height="63" viewBox="0 0 62 63" fill="none" xmlns="http://www.w3.org/2000/svg">
<g clip-path="url(#clip0_62_164)">
<path d="M1.32308 31.0938C1.32162 36.303 2.69337 41.3894 5.30173 45.8726L1.07362 61.1904L16.872 57.0802C21.2416 59.4405 26.1375 60.6773 31.1126 60.6776H31.1257C47.5496 60.6776 60.9191 47.4166 60.9261 31.1171C60.9293 23.2188 57.8322 15.7918 52.2052 10.2041C46.5792 4.61689 39.0968 1.53827 31.1245 1.53467C14.6986 1.53467 1.3301 14.795 1.32332 31.0938" fill="url(#paint0_linear_62_164)"/>
<path d="M0.259141 31.0842C0.257445 36.4808 1.67836 41.7492 4.37972 46.3929L0 62.2599L16.3649 58.0023C20.8739 60.4417 25.9506 61.7278 31.1165 61.7297H31.1298C48.143 61.7297 61.9927 47.9917 62 31.1087C62.0029 22.9266 58.7944 15.2326 52.9664 9.44475C47.1377 3.6576 39.3877 0.468208 31.1298 0.464844C14.1137 0.464844 0.265922 14.201 0.259141 31.0842ZM10.005 45.5932L9.39397 44.6307C6.82533 40.5781 5.46956 35.895 5.4715 31.0861C5.47683 17.0532 16.9865 5.63632 31.1395 5.63632C37.9934 5.6392 44.4346 8.2903 49.2793 13.1003C54.1238 17.9109 56.7896 24.3055 56.7879 31.1068C56.7816 45.1397 45.2716 56.558 31.1298 56.558H31.1196C26.5149 56.5556 21.9989 55.3286 18.0604 53.0098L17.1231 52.4583L7.41191 54.9847L10.005 45.5932Z" fill="url(#paint1_linear_62_164)"/>
<path d="M23.4142 18.2833C22.8363 17.009 22.2282 16.9833 21.6787 16.9609C21.2287 16.9417 20.7143 16.9431 20.2004 16.9431C19.686 16.9431 18.8502 17.1351 18.1437 17.9005C17.4365 18.6666 15.4438 20.518 15.4438 24.2834C15.4438 28.0488 18.2079 31.6881 18.5932 32.1992C18.979 32.7094 23.9293 40.6839 31.7694 43.7517C38.2852 46.3011 39.6112 45.794 41.0254 45.6662C42.4397 45.5388 45.5891 43.8153 46.2317 42.0282C46.8747 40.2412 46.8747 38.7095 46.6819 38.3894C46.4891 38.0705 45.9747 37.879 45.2033 37.4964C44.432 37.1138 40.6395 35.262 39.9326 35.0065C39.2254 34.7513 38.7113 34.624 38.1968 35.3903C37.6824 36.1555 36.2053 37.879 35.7551 38.3894C35.3054 38.901 34.8551 38.9647 34.084 38.5819C33.3122 38.1978 30.8281 37.3906 27.8809 34.7835C25.5878 32.7548 24.0398 30.2496 23.5898 29.4832C23.1398 28.7181 23.5416 28.3033 23.9284 27.9219C24.2749 27.579 24.7 27.0282 25.086 26.5815C25.4706 26.1345 25.599 25.8156 25.8562 25.3052C26.1136 24.7943 25.9848 24.3473 25.7922 23.9645C25.599 23.5817 24.1001 19.7966 23.4142 18.2833Z" fill="white"/>
</g>
<defs>
<linearGradient id="paint0_linear_62_164" x1="2993.7" y1="5967.11" x2="2993.7" y2="1.53467" gradientUnits="userSpaceOnUse">
<stop stop-color="#1FAF38"/>
<stop offset="1" stop-color="#60D669"/>
</linearGradient>
<linearGradient id="paint1_linear_62_164" x1="3100" y1="6179.97" x2="3100" y2="0.464844" gradientUnits="userSpaceOnUse">
<stop stop-color="#F9F9F9"/>
<stop offset="1" stop-color="white"/>
</linearGradient>
<clipPath id="clip0_62_164">
<rect width="62" height="62" fill="white" transform="translate(0 0.464844)"/>
</clipPath>
</defs>
</svg>
